<svg xmlns="http://www.w3.org/2000/svg" xmlns:xlink="http://www.w3.org/1999/xlink" viewBox="0 0 170.93 170.93"><defs><style>.cls-1{fill:url(#linear-gradient);}.cls-2{fill:url(#linear-gradient-2);}.cls-3,.cls-5{fill:#fff;}.cls-4,.cls-6{fill:none;}.cls-4{stroke:#fff;stroke-miterlimit:10;stroke-width:11px;}.cls-5{opacity:0.79;}</style><linearGradient id="linear-gradient" x1="85.47" y1="170.93" x2="85.47" gradientUnits="userSpaceOnUse"><stop offset="0" stop-color="#97daf8"/><stop offset="1" stop-color="#2aa6d7"/></linearGradient><linearGradient id="linear-gradient-2" x1="85.42" y1="144.06" x2="85.42" y2="26.87" gradientUnits="userSpaceOnUse"><stop offset="0" stop-color="#f9a457"/><stop offset="1" stop-color="#fdf052"/></linearGradient></defs><title>Asset 1</title><g id="Layer_2" data-name="Layer 2"><g id="Layer_1-2" data-name="Layer 1"><rect class="cls-1" width="170.93" height="170.93" rx="33.1" ry="33.1"/><circle class="cls-2" cx="85.42" cy="85.47" r="58.59"/><path class="cls-3" d="M28,37.09a7.93,7.93,0,1,1,7.93-7.93A7.94,7.94,0,0,1,28,37.09Zm0-11.86a3.93,3.93,0,1,0,3.93,3.93A3.94,3.94,0,0,0,28,25.23Z"/><path class="cls-4" d="M127.29,126.45a58.59,58.59,0,1,1-.69-82.67"/><circle class="cls-5" cx="85.42" cy="85.47" r="17.36"/><path class="cls-3" d="M85.42,149.56a64.09,64.09,0,1,1,45-109.69l-7.73,7.83a53.09,53.09,0,1,0,.63,74.91l7.86,7.7A63.61,63.61,0,0,1,85.42,149.56Z"/><path class="cls-5" d="M115.18,126a50.25,50.25,0,0,1-59.51,0h0a32.62,32.62,0,0,1,59.51,0"/><path class="cls-6" d="M54.55,128.64a53.05,53.05,0,0,0,68.81-6"/><path class="cls-6" d="M122.73,47.7a53.09,53.09,0,1,0-68.18,80.95"/></g></g></svg>