<?xml version="1.0" encoding="utf-8"?>
<!-- Generator: Adobe Illustrator 21.1.0, SVG Export Plug-In . SVG Version: 6.00 Build 0)  -->
<svg version="1.1" id="Layer_1" xmlns="http://www.w3.org/2000/svg" xmlns:xlink="http://www.w3.org/1999/xlink" x="0px" y="0px"
	 viewBox="0 0 841.9 595.3" style="enable-background:new 0 0 841.9 595.3;" xml:space="preserve">
<style type="text/css">
	.st0{fill:#F8BE58;}
	.st1{fill:#565656;}
	.st2{fill:url(#SVGID_1_);}
	.st3{fill:url(#SVGID_2_);}
	.st4{fill:#FFFFFF;}
	.st5{opacity:0.79;fill:#FFFFFF;}
	.st6{fill:none;}
	.st7{fill:none;stroke:#FFFFFF;stroke-width:11;stroke-miterlimit:10;}
</style>
<g>
	<path class="st0" d="M367.6,378.6c-0.5-1.7-1.4-4.8-6.2-4.8c-2.8,0-6.9,1.9-6.9,9.8c0,5,2,9.6,6.9,9.6c3.2,0,5.5-1.8,6.2-5.3h5.8
		c-1.2,6.1-5.1,10.3-12.2,10.3c-7.4,0-12.8-5-12.8-14.7c0-9.8,5.7-14.8,12.9-14.8c8.4,0,11.8,5.8,12.1,9.9H367.6z"/>
	<path class="st1" d="M381,397.4h-3.4v-28h3.4V397.4z"/>
	<path class="st1" d="M386.2,373.3v-3.9h3.4v3.9H386.2z M389.6,397.4h-3.4V377h3.4V397.4z"/>
	<path class="st1" d="M394.8,377h3.2v2.9h0.1c0.7-1.1,2.5-3.5,6.2-3.5s4.8,2.2,5.4,3.3c1.7-1.9,3.1-3.3,6.2-3.3
		c2.2,0,6.3,1.1,6.3,6.9v14.1h-3.4v-13.2c0-2.8-0.9-4.7-3.8-4.7c-2.9,0-4.8,2.7-4.8,5.5v12.4h-3.4v-14.1c0-1.7-0.7-3.8-3.2-3.8
		c-2,0-5.4,1.2-5.4,6.8v11.1h-3.4V377z"/>
	<path class="st1" d="M432.1,389.2l-2.9,8.2h-3.9l10.5-28h4.3l10.1,28h-4.1l-2.8-8.2H432.1z M442,385.9l-4.1-12.3h-0.1l-4.5,12.3
		H442z"/>
	<path class="st1" d="M453,377h3.2v2.9h0.1c0.8-1.2,2.4-3.5,6.1-3.5c5.4,0,8.5,4.4,8.5,10.2c0,4.9-2,11.4-9,11.4
		c-2.7,0-4.5-1.3-5.4-2.7h-0.1v10.2H453V377z M461.9,395c3.7,0,5.5-3.4,5.5-7.9c0-2.6-0.3-7.6-5.6-7.6c-5,0-5.5,5.3-5.5,8.7
		C456.3,393.6,459.7,395,461.9,395z"/>
	<path class="st1" d="M474.7,377h3.2v2.9h0.1c0.8-1.2,2.4-3.5,6.1-3.5c5.4,0,8.5,4.4,8.5,10.2c0,4.9-2,11.4-9,11.4
		c-2.7,0-4.5-1.3-5.4-2.7h-0.1v10.2h-3.4V377z M483.6,395c3.7,0,5.5-3.4,5.5-7.9c0-2.6-0.3-7.6-5.6-7.6c-5,0-5.5,5.3-5.5,8.7
		C478,393.6,481.4,395,483.6,395z"/>
</g>
<g>
	<linearGradient id="SVGID_1_" gradientUnits="userSpaceOnUse" x1="422.2482" y1="360.5783" x2="422.2482" y2="189.6435">
		<stop  offset="0" style="stop-color:#97DAF8"/>
		<stop  offset="1" style="stop-color:#2AA6D7"/>
	</linearGradient>
	<path class="st2" d="M474.6,360.6H369.9c-18.3,0-33.1-14.8-33.1-33.1V222.7c0-18.3,14.8-33.1,33.1-33.1h104.7
		c18.3,0,33.1,14.8,33.1,33.1v104.7C507.7,345.8,492.9,360.6,474.6,360.6z"/>
</g>
<linearGradient id="SVGID_2_" gradientUnits="userSpaceOnUse" x1="420.1597" y1="328.0859" x2="420.1597" y2="221.1364">
	<stop  offset="0" style="stop-color:#F9A457"/>
	<stop  offset="1" style="stop-color:#FDF052"/>
</linearGradient>
<circle class="st3" cx="420.2" cy="274.6" r="53.5"/>
<path class="st4" d="M362.9,226.2c-4.4,0-7.9-3.6-7.9-7.9c0-4.4,3.6-7.9,7.9-7.9s7.9,3.6,7.9,7.9
	C370.9,222.7,367.3,226.2,362.9,226.2z M362.9,214.4c-2.2,0-3.9,1.8-3.9,3.9c0,2.2,1.8,3.9,3.9,3.9s3.9-1.8,3.9-3.9
	C366.9,216.1,365.1,214.4,362.9,214.4z"/>
<circle class="st5" cx="420.4" cy="274.6" r="17.4"/>
<path class="st6" d="M389.5,317.8c8.7,6.2,19.4,9.9,30.9,9.9c14.4,0,27.9-5.7,37.9-16"/>
<path class="st6" d="M457.7,236.8c-10-9.9-23.3-15.3-37.3-15.3c-29.3,0-53.1,23.8-53.1,53.1c0,17.8,8.8,33.5,22.2,43.2"/>
<path class="st7" d="M460.4,232.2c-10.5-9.9-24.6-16-40.2-16c-32.3,0-58.5,26.2-58.5,58.5c0,32.3,26.2,58.5,58.5,58.5
	c15.6,0,29.7-6.1,40.2-16"/>
<path class="st5" d="M420.4,295.9c-10.1,0-18.5,5-23.2,24.1c6.9,3.5,14.7,5.5,23,5.5c8.5,0,16.4-2.1,23.4-5.7
	C438.9,300.8,430.5,295.9,420.4,295.9z"/>
</svg>
